<svg width="199" height="170" viewBox="0 0 199 170" fill="none" xmlns="http://www.w3.org/2000/svg">
<path d="M63.4575 50.9544C63.4575 48.4267 65.5066 46.3777 68.0342 46.3777H105.537C108.064 46.3777 110.113 48.4267 110.113 50.9544V83.8688H63.4575V50.9544Z" fill="black"/>
<path d="M43.3844 39.0186C43.5423 39.0186 43.6704 39.1466 43.6704 39.3046V83.7911C43.6704 83.9491 43.7985 84.0771 43.9565 84.0771H164.883C165.041 84.0771 165.169 83.9491 165.169 83.7911V39.3046C165.169 39.1466 165.298 39.0186 165.455 39.0186H173.562C173.72 39.0186 173.848 39.1466 173.848 39.3046V169.049C173.848 169.207 173.72 169.335 173.562 169.335H165.455C165.298 169.335 165.169 169.207 165.169 169.049V156.152C165.169 155.994 165.041 155.866 164.883 155.866H43.9565C43.7985 155.866 43.6704 155.994 43.6704 156.152V169.049C43.6704 169.207 43.5423 169.335 43.3844 169.335H34.5834C34.4254 169.335 34.2974 169.207 34.2974 169.049V39.3046C34.2974 39.1466 34.4254 39.0186 34.5834 39.0186H43.3844ZM43.9565 92.6172C43.7985 92.6172 43.6704 92.7453 43.6704 92.9032V147.041C43.6704 147.199 43.7985 147.327 43.9565 147.327H164.883C165.041 147.327 165.169 147.199 165.169 147.041V92.9032C165.169 92.7453 165.041 92.6172 164.883 92.6172H43.9565Z" fill="black"/>
<path d="M72.4829 54.9177V83.7998H101.157V54.9177H91.1591V64.9848H82.6194V54.9177H72.4829Z" fill="white"/>
<path d="M57.9033 119.966C57.9033 117.438 59.9524 115.389 62.48 115.389H94.0115C96.5392 115.389 98.5882 117.438 98.5882 119.966V147.743H57.9033V119.966Z" fill="black"/>
<path d="M66.9292 124.276V147.048H89.7711V124.276H82.6894V128.789H73.6637V124.276H66.9292Z" fill="#2EDF84"/>
<path d="M73.5943 124.276H66.9292V146.979H75.5383V128.789H73.5943V124.276Z" fill="#00B872"/>
<path d="M104.143 115.434C104.143 112.418 106.587 109.973 109.603 109.973H147.224C150.24 109.973 152.685 112.418 152.685 115.434V148.575H104.143V115.434Z" fill="black"/>
<path d="M114.911 120.577V147.747H142.165V120.577H133.715V125.961H122.946V120.577H114.911Z" fill="#2EDF84"/>
<path d="M122.863 120.577H114.911V147.665H125.183V125.961H122.863V120.577Z" fill="#00B872"/>
<path d="M72.4829 83.7302V54.8481H80.9531V83.7302H72.4829Z" fill="#D7DAE1"/>
<ellipse cx="189.47" cy="21.7313" rx="9.09509" ry="9.09506" fill="#161716"/>
<ellipse cx="189.47" cy="21.7303" rx="2.98541" ry="2.9854" fill="#EFEFEF"/>
<rect x="20.2729" width="5.97082" height="11.6639" fill="black"/>
<rect x="20.2729" y="33.1868" width="5.97082" height="11.6639" fill="black"/>
<rect x="45.0591" y="18.8845" width="5.97081" height="11.6639" transform="rotate(90 45.0591 18.8845)" fill="black"/>
<rect x="11.6641" y="18.8845" width="5.97081" height="11.6639" transform="rotate(90 11.6641 18.8845)" fill="black"/>
</svg>